<svg xmlns="http://www.w3.org/2000/svg" width="48.11" height="38.12" viewBox="0 0 48.11 38.12">
  <g id="Aku_Reps" data-name="Aku Reps" transform="translate(-0.667)">
    <path id="Fill_362" data-name="Fill 362" d="M39.123,38.12H2a1.612,1.612,0,0,1-.373-.041H1.614c-.045-.011-.089-.025-.132-.038s-.071-.023-.107-.032-.047-.017-.07-.024a.665.665,0,0,1-.074-.026.613.613,0,0,1-.118-.057l-.06-.033-.072-.039-.1-.051-.07-.055L.772,37.69l-.056-.045c-.044-.035-.088-.07-.127-.105S.516,37.45.478,37.4L.45,37.369a1.165,1.165,0,0,1-.1-.129.794.794,0,0,1-.068-.12c-.01-.021-.02-.041-.031-.06l-.024-.042A.885.885,0,0,1,.161,36.9a.87.87,0,0,1-.04-.119L.109,36.74l-.021-.063a1.519,1.519,0,0,1-.044-.146.584.584,0,0,1-.01-.076c0-.019,0-.037-.006-.054l-.006-.045A1.836,1.836,0,0,1,0,36.13v-.01a.872.872,0,0,1,.01-.114c0-.022.006-.044.008-.066s0-.04,0-.061a.988.988,0,0,1,.013-.128l1.27-6.719a6.186,6.186,0,0,1,3.661-4.56l7.8-3.35a8.869,8.869,0,0,1-1.059-4.2V11.86A8.87,8.87,0,0,1,20.562,3a8.659,8.659,0,0,1,3.062.561A7.644,7.644,0,0,1,37.73,7.66v4.37a7.638,7.638,0,0,1-.8,3.389l6.72,2.88a5.628,5.628,0,0,1,3.33,4.14l1.1,5.81a1.355,1.355,0,0,1,.01.2.892.892,0,0,1,.021.17v.02a1.034,1.034,0,0,1-.017.167c0,.031-.01.061-.013.094a.539.539,0,0,1-.01.13c-.012.047-.027.091-.042.133s-.02.058-.029.087a.778.778,0,0,0-.025.08.776.776,0,0,1-.025.08.56.56,0,0,1-.045.083c-.015.025-.031.05-.045.077l-.007.014a.92.92,0,0,1-.092.155.689.689,0,0,1-.1.135l-.03.035a.769.769,0,0,0-.055.065.768.768,0,0,1-.055.065,1.562,1.562,0,0,1-.123.1l-.057.046c-.013.01-.024.02-.036.031a.282.282,0,0,1-.084.059.518.518,0,0,1-.1.059c-.021.01-.04.02-.059.031a1.566,1.566,0,0,1-.172.1l-.008,0a.841.841,0,0,1-.118.034l-.023.005-.013,0a1.035,1.035,0,0,1-.226.065.013.013,0,0,0-.01,0,.014.014,0,0,1-.011.005,2.307,2.307,0,0,1-.37.03H40.122l.968,5.13a.869.869,0,0,1,.013.135c0,.019,0,.038,0,.055s0,.044.008.066a.875.875,0,0,1,.01.114v.01a1.969,1.969,0,0,1-.024.252l0,.018c0,.016,0,.033,0,.05a.589.589,0,0,1-.01.081,1.518,1.518,0,0,1-.048.155l-.019.055L41,36.783a.947.947,0,0,1-.039.117.838.838,0,0,1-.06.115l-.026.045c-.01.019-.02.039-.03.059a.8.8,0,0,1-.069.121,1.051,1.051,0,0,1-.107.131l-.026.029c-.041.054-.071.094-.11.139s-.1.083-.149.123l-.034.027-.054.042c-.02.016-.039.032-.061.048l-.106.057-.061.033-.058.032a.613.613,0,0,1-.12.058.652.652,0,0,1-.074.026c-.023.007-.047.014-.07.024s-.071.021-.107.032-.087.028-.133.038H39.5A1.616,1.616,0,0,1,39.123,38.12ZM15.569,24.24h0l-.071.043a1.36,1.36,0,0,1-.195.107L6.541,28.14a2.211,2.211,0,0,0-1.306,1.63l-.822,4.35h32.3l-.821-4.35a2.215,2.215,0,0,0-1.306-1.63l-8.763-3.75a1.356,1.356,0,0,1-.2-.109l-.067-.042a8.867,8.867,0,0,1-9.987,0Zm13.419-4.63a8.418,8.418,0,0,1-.626,1.51l7.8,3.35A6.193,6.193,0,0,1,38.8,26.62h4.9l-.651-3.43a1.659,1.659,0,0,0-.969-1.211L34.51,18.73a1.74,1.74,0,0,1-.375-.206l0,0a7.636,7.636,0,0,1-4.06,1.17,7.728,7.728,0,0,1-1.082-.08ZM20.562,7A4.865,4.865,0,0,0,15.7,11.86v5.06a4.86,4.86,0,1,0,9.719,0V11.86A4.866,4.866,0,0,0,20.562,7ZM30.07,4a3.628,3.628,0,0,0-3.106,1.75,8.812,8.812,0,0,1,2.458,6.11V15.61a3.483,3.483,0,0,0,.648.08,3.664,3.664,0,0,0,3.66-3.659V7.66A3.664,3.664,0,0,0,30.07,4Z" transform="translate(0.667)" fill="#343532"/>
  </g>
</svg>
