<svg xmlns="http://www.w3.org/2000/svg" width="37.609" height="48" viewBox="0 0 37.609 48">
  <g id="All_Transactions" data-name="All Transactions" transform="translate(-0.611 -0.001)">
    <path id="Fill_408" data-name="Fill 408" d="M35.609,48a2.019,2.019,0,0,1-.4-.039c-.027-.006-.056-.016-.088-.026l-.083-.025-.073-.022c-.041-.012-.084-.024-.127-.041a1.143,1.143,0,0,1-.153-.079l-.037-.021-.056-.03a1.03,1.03,0,0,1-.094-.054,1.948,1.948,0,0,1-.31-.251l-1.94-1.945L30.3,47.415a1.918,1.918,0,0,1-.561.386c-.014.007-.028.015-.042.023a.415.415,0,0,1-.058.03.466.466,0,0,1-.06.018l-.041.011a1.98,1.98,0,0,1-.652.116,2.02,2.02,0,0,1-.382-.036,1.987,1.987,0,0,1-1.033-.549l-1.946-1.947L23.58,47.412a1.989,1.989,0,0,1-1.035.552,2.02,2.02,0,0,1-.382.036,1.971,1.971,0,0,1-.652-.116l-.04-.011a.468.468,0,0,1-.061-.019.423.423,0,0,1-.056-.029c-.015-.009-.029-.017-.043-.024a1.935,1.935,0,0,1-.562-.386L18.8,45.468l-1.946,1.947a2,2,0,0,1-2.828,0l-1.948-1.947-1.943,1.944a1.983,1.983,0,0,1-1.035.552A2.02,2.02,0,0,1,8.721,48a1.969,1.969,0,0,1-.651-.116l-.04-.011a.434.434,0,0,1-.061-.019.446.446,0,0,1-.057-.03L7.868,47.8a1.956,1.956,0,0,1-.561-.386L5.36,45.468,3.414,47.415A2,2,0,0,1,0,46V2A2,2,0,0,1,2,0h33.61a2,2,0,0,1,2,2V46a2.475,2.475,0,0,1-.041.392l-.008.025a.972.972,0,0,0-.041.146,1.506,1.506,0,0,1-.07.2.694.694,0,0,1-.089.174l-.011.017c-.014.024-.025.047-.037.071a.9.9,0,0,1-.043.081,2.193,2.193,0,0,1-.55.555.769.769,0,0,1-.094.05c-.023.011-.046.022-.067.034l-.037.021a1.145,1.145,0,0,1-.153.079,1.085,1.085,0,0,1-.157.051l-.043.012c-.024.007-.047.014-.069.022a.765.765,0,0,1-.1.029A1.991,1.991,0,0,1,35.609,48ZM25.523,40.64a1.986,1.986,0,0,1,1.414.586l1.947,1.946,1.947-1.946a1.928,1.928,0,0,1,.3-.248l.006,0,0,0a.423.423,0,0,1,.05-.027l.039-.02a2.011,2.011,0,0,1,1.025-.28,1.959,1.959,0,0,1,.742.144,2.078,2.078,0,0,1,.609.4V4H4V41.174a.809.809,0,0,1,.087-.068l.054-.04.052-.041a1.033,1.033,0,0,1,.095-.07,1.413,1.413,0,0,1,.16-.086l.026-.012.051-.027a.976.976,0,0,1,.109-.052,1.509,1.509,0,0,1,.173-.052l.03-.008.057-.017c.034-.01.069-.021.1-.028a1.677,1.677,0,0,1,.173-.017l.047,0,.058-.005c.033,0,.067-.007.1-.007a1.76,1.76,0,0,1,.208.019l.023,0,.057.005a.718.718,0,0,1,.089.011,1.843,1.843,0,0,1,.2.058l.04.013.047.013a.656.656,0,0,1,.079.025,1.858,1.858,0,0,1,.239.126l.045.023a.637.637,0,0,1,.061.033,2.015,2.015,0,0,1,.222.182l.036.029a.456.456,0,0,1,.052.044l1.947,1.946,1.946-1.946a2,2,0,0,1,2.828,0l1.948,1.946,1.944-1.943a1.981,1.981,0,0,1,1.406-.586,2.014,2.014,0,0,1,1.034.287l.032.016a.367.367,0,0,1,.045.024l0,0,.006,0a1.919,1.919,0,0,1,.3.248l1.948,1.946,1.946-1.946A1.983,1.983,0,0,1,25.523,40.64Z" transform="translate(0.611 0.001)" fill="#343532"/>
    <path id="Fill_409" data-name="Fill 409" d="M1.5,3H14.1a1.5,1.5,0,0,0,0-3H1.5a1.5,1.5,0,0,0,0,3" transform="translate(9.111 11.501)" fill="#343532"/>
    <path id="Fill_410" data-name="Fill 410" d="M1.5,3H19.1a1.5,1.5,0,0,0,0-3H1.5a1.5,1.5,0,0,0,0,3" transform="translate(9.111 17.501)" fill="#343532"/>
    <path id="Fill_411" data-name="Fill 411" d="M1.5,3H19.1a1.5,1.5,0,0,0,0-3H1.5a1.5,1.5,0,0,0,0,3" transform="translate(9.111 23.501)" fill="#343532"/>
  </g>
</svg>
