<svg xmlns="http://www.w3.org/2000/svg" width="48" height="38" viewBox="0 0 48 38">
  <g id="Disbursement_Logs" data-name="Disbursement Logs" transform="translate(-0.665)">
    <path id="Fill_1" data-name="Fill 1" d="M25,34H10.485V6.827l3.07,3.07a2.016,2.016,0,0,0,1.42.59,2.005,2.005,0,0,0,1.41-3.42L9.9.587A2.424,2.424,0,0,0,9.6.338a.827.827,0,0,0-.16-.09c-.06-.03-.12-.07-.18-.1l-.21-.06a.845.845,0,0,0-.17-.05,2.047,2.047,0,0,0-.78,0,1.093,1.093,0,0,0-.17.05c-.07.02-.14.04-.2.06s-.13.07-.19.1a1.29,1.29,0,0,0-.16.09,1.81,1.81,0,0,0-.3.25L.585,7.068A2,2,0,0,0,3.415,9.9l3.07-3.07V36a2,2,0,0,0,2,2H25a2,2,0,0,0,0-4" transform="translate(0.665 0.002)" fill="#343532"/>
    <path id="Fill_2" data-name="Fill 2" d="M26.41,28.1a2,2,0,0,0-2.83,0l-3.07,3.07V2a2,2,0,0,0-2-2H2A2,2,0,0,0,2,4H16.51V31.17L13.44,28.1a2,2,0,1,0-2.83,2.83l6.49,6.48a1.425,1.425,0,0,0,.3.25,1.29,1.29,0,0,0,.16.09c.06.03.12.07.19.1a1.169,1.169,0,0,0,.2.06,1.092,1.092,0,0,0,.17.05,1.921,1.921,0,0,0,.78,0,.845.845,0,0,0,.17-.05,1.655,1.655,0,0,0,.21-.06c.06-.03.12-.07.19-.1a1.19,1.19,0,0,0,.15-.09,1.789,1.789,0,0,0,.31-.25l6.48-6.48a2,2,0,0,0,0-2.83" transform="translate(21.67)" fill="#343532"/>
  </g>
</svg>
