<svg id="Stockholm-icons-_-Communication-_-Sending" data-name="Stockholm-icons-/-Communication-/-Sending" xmlns="http://www.w3.org/2000/svg" width="55.202" height="55.202" viewBox="0 0 55.202 55.202">
  <rect id="bound" width="55.202" height="55.202" fill="none"/>
  <path id="Combined-Shape" d="M0,18.16l28.629-2.684L0,12.792V1.15A1.15,1.15,0,0,1,1.622.1L33.456,14.427a1.15,1.15,0,0,1,0,2.1L1.622,30.85A1.15,1.15,0,0,1,0,29.8Z" transform="translate(18.401 12.125)" fill="#ff6f8b" fill-rule="evenodd"/>
  <path id="Combined-Shape-2" data-name="Combined-Shape" d="M9.2,23h2.3a2.3,2.3,0,0,1,0,4.6H9.2a2.3,2.3,0,0,1,0-4.6ZM2.3,11.5h9.2a2.3,2.3,0,0,1,0,4.6H2.3a2.3,2.3,0,0,1,0-4.6ZM9.2,0h2.3a2.3,2.3,0,0,1,0,4.6H9.2A2.3,2.3,0,1,1,9.2,0Z" transform="translate(0 13.8)" fill="#fff5f5" fill-rule="evenodd" opacity="0.3"/>
</svg>
