<svg width="19" height="18" viewBox="0 0 19 18" fill="none" xmlns="http://www.w3.org/2000/svg">
<path d="M8.33333 17.3332C3.73083 17.3332 0 13.6023 0 8.99984C0 4.39734 3.73083 0.666506 8.33333 0.666506C9.62721 0.665534 10.9035 0.966317 12.0608 1.54496C13.2181 2.1236 14.2245 2.96415 15 3.99984H12.7417C11.7794 3.15131 10.5926 2.59847 9.32393 2.40767C8.05521 2.21687 6.75839 2.39622 5.58907 2.92418C4.41976 3.45215 3.42762 4.30631 2.73172 5.38416C2.03583 6.46202 1.66572 7.71778 1.66583 9.00076C1.66594 10.2837 2.03625 11.5394 2.73233 12.6172C3.42841 13.6949 4.42068 14.5489 5.59009 15.0767C6.75949 15.6045 8.05634 15.7836 9.32503 15.5926C10.5937 15.4016 11.7803 14.8485 12.7425 13.9998H15.0008C14.2252 15.0356 13.2187 15.8763 12.0612 16.4549C10.9038 17.0336 9.62735 17.3343 8.33333 17.3332V17.3332ZM14.1667 12.3332V9.83317H7.5V8.16651H14.1667V5.66651L18.3333 8.99984L14.1667 12.3332Z" fill="#38383F"/>
</svg>
